<?xml version="1.0" encoding="utf-8"?>
<!-- Generator: Adobe Illustrator 23.0.2, SVG Export Plug-In . SVG Version: 6.00 Build 0)  -->
<svg version="1.1" id="Layer_1" xmlns="http://www.w3.org/2000/svg" xmlns:xlink="http://www.w3.org/1999/xlink" x="0px" y="0px"
	 viewBox="0 0 29.5 27.5" style="enable-background:new 0 0 29.5 27.5;" xml:space="preserve">
<style type="text/css">
	.st0{fill:#DC382D;}
	.st1{fill:none;stroke:#DC382D;stroke-width:1.5;stroke-miterlimit:10;}
</style>
<path class="st0" d="M26.6,9V5.7l-3.4-1V2.1L19.4,0l-4.6,1.8L10.4,0L6.3,2.1v2.6l-3.4,1V9L0,13.8l2.9,4.7v3.3l3.4,1v2.6l3.8,2.1
	l4.6-1.8l4.4,1.8l4.1-2.1v-2.6l3.4-1v-3.3l2.9-4.7L26.6,9z M14,24.3l-3.8,1.5l-2.4-1.4v-2.8l-3.4-1v-2h2.5l2.3,1.9l1-1.2l-1.8-1.5
	l1.8-1.5l-1-1.2l-2.3,1.9H3.8l-2-3.4l1.9-3.2h3.2l2.3,1.9l1-1.2L8.3,9.8l1.8-1.5l-1-1.1L6.9,9H4.4v0V6.9l3.4-1V3.1l2.6-1.4L14,3.1
	V24.3z M25.8,17h-3.2l-2.3-1.9l-1,1.2l1.8,1.5l-1.8,1.5l1,1.2l2.3-1.9h2.5v0v2.1l-3.4,1v2.8l-2.6,1.4l-3.6-1.5V3.2l3.8-1.5L21.7,3
	v2.8l3.4,1v2h-2.5L20.3,7l-1,1.2l1.8,1.5l-1.8,1.5l1,1.2l2.3-1.9h3.1l2,3.4L25.8,17z"/>
</svg>
